<svg xmlns="http://www.w3.org/2000/svg" width="662.972" height="170.417" viewBox="-182.711 -67.919 662.972 170.417"><path fill="#060E9F" d="M63.52 12.605c0-44.357-55.121-80.524-123.103-80.524-67.996 0-123.108 36.163-123.108 80.524l-.021 4.718c0 47.065 48.175 85.175 123.109 85.175 75.386 0 123.121-38.104 123.121-85.163l.002-4.73z"/><ellipse fill="#FFD100" cx="-59.566" cy="12.564" rx="118.369" ry="75.729"/><g fill="#FFF"><path d="M-98.873-11.323c-.06.12-1.241 1.338-.474 2.319 1.861 2.388 7.638 3.753 13.47 2.447 3.476-.782 7.927-4.325 12.242-7.747 4.675-3.716 9.313-7.428 13.971-8.91 4.944-1.572 8.1-.902 10.193-.265 2.294.687 4.993 2.188 9.289 5.422C-32.079-11.972.482 16.456 6.114 21.372c4.53-2.049 24.676-10.71 52.048-16.754-2.379-14.59-11.252-27.939-24.708-38.867-18.767 7.88-41.691 11.989-64.118 1.037-.113-.042-12.242-5.79-24.216-5.507-17.789.41-25.493 8.109-33.656 16.266l-10.337 11.13z"/><path d="M4.791 24.461c-.385-.342-38.295-33.513-46.881-39.963-4.97-3.73-7.735-4.681-10.645-5.055-1.505-.191-3.597.094-5.053.488-3.993 1.089-9.224 4.579-13.862 8.261-4.8 3.824-9.325 7.421-13.535 8.367-5.367 1.199-11.922-.217-14.915-2.241-1.218-.813-2.062-1.76-2.47-2.705-1.109-2.561.927-4.614 1.264-4.965l10.464-11.313c1.224-1.206 2.446-2.427 3.706-3.622-3.38.439-6.506 1.295-9.543 2.151-3.783 1.066-7.433 2.078-11.121 2.072-1.542 0-9.789-1.354-11.355-1.771-9.469-2.591-17.777-5.115-30.188-10.915-14.879 11.066-24.826 24.915-27.698 40.156 2.133.573 5.573 1.602 7.025 1.921 33.662 7.481 44.144 15.193 46.042 16.803a11.212 11.212 0 0 1 8.349-3.736 11.195 11.195 0 0 1 9.12 4.765 12.715 12.715 0 0 1 8.021-2.819c1.565 0 3.18.282 4.812.848 3.803 1.302 5.765 3.832 6.778 6.115a11.117 11.117 0 0 1 4.681-.988c1.813 0 3.7.404 5.604 1.224 6.204 2.674 7.168 8.758 6.604 13.354 7.349-.722 13.893 4.645 14.621 11.989.041.427.06.86.06 1.289 0 2.277-.579 4.422-1.596 6.295 2.005 1.132 7.109 3.674 11.591 3.108 3.578-.452 4.932-1.676 5.422-2.368.343-.47.686-1.029.368-1.422l-9.501-10.547s-1.56-1.477-1.042-2.049c.53-.586 1.5.252 2.181.825 4.836 4.035 10.736 10.126 10.736 10.126.1.072.494.85 2.674 1.229 1.886.343 5.205.145 7.513-1.747a12.157 12.157 0 0 0 1.649-1.688c-.035.035-.072.073-.107.085 2.428-3.108-.266-6.248-.266-6.248l-11.097-12.456s-1.583-1.464-1.041-2.056c.479-.511 1.5.259 2.199.844 3.511 2.934 8.469 7.903 13.217 12.566.933.673 5.109 3.257 10.645-.373 3.355-2.2 4.024-4.912 3.934-6.948-.234-2.696-2.337-4.625-2.337-4.625l-15.151-15.227s-1.602-1.367-1.035-2.061c.463-.579 1.5.259 2.18.825 4.826 4.035 17.88 16.013 17.88 16.013.193.134 4.698 3.344 10.277-.191 1.994-1.283 3.271-3.206 3.374-5.441.171-3.878-2.552-6.179-2.552-6.179z"/><path d="M-68.674 43.762c-2.347-.023-4.921 1.382-5.25 1.162-.188-.113.144-1.06.36-1.602.228-.54 3.325-9.855-4.217-13.078-5.772-2.482-9.294.307-10.511 1.567-.314.331-.458.3-.494-.114-.115-1.675-.868-6.217-5.849-7.735-7.109-2.175-11.694 2.79-12.852 4.579a8.238 8.238 0 0 0-9.18-7.177c-4.152.514-7.26 4.043-7.234 8.218a8.264 8.264 0 0 0 13.969 5.971c.048.042.067.114.042.277-.343 2.041-.988 9.457 6.784 12.482 3.12 1.209 5.776.307 7.969-1.229.655-.457.766-.27.668.356-.282 1.902.073 5.993 5.807 8.313 4.361 1.776 6.939-.036 8.626-1.603.741-.669.94-.561.977.477.24 5.549 4.813 9.927 10.367 9.915 5.742.012 10.397-4.633 10.409-10.368v-.014c.001-5.728-4.649-10.324-10.391-10.397z"/></g><path fill="#060E9F" d="M6.256 20.498C-5.432 10.305-32.418-13.159-39.72-18.649c-4.174-3.15-7.029-4.795-9.529-5.542a15.62 15.62 0 0 0-4.676-.729c-1.86 0-3.855.342-5.939 1-4.729 1.494-9.44 5.24-13.987 8.861l-.234.175c-4.242 3.374-8.621 6.86-11.94 7.602a20.257 20.257 0 0 1-4.422.494c-3.723-.006-7.061-1.078-8.308-2.682-.199-.264-.067-.686.416-1.3l.061-.085 10.277-11.073c8.046-8.042 15.651-15.644 33.143-16.054l.879-.012c10.892.012 21.773 4.886 23 5.451 10.212 4.981 20.753 7.512 31.344 7.524 11.043 0 22.435-2.729 34.416-8.246a89.943 89.943 0 0 0-4.162-3.296C20.093-32 10.068-29.692.389-29.692c-9.875-.013-19.748-2.392-29.325-7.065-.506-.241-12.525-5.913-25.03-5.919l-.986.015c-14.693.348-22.977 5.559-28.538 10.138-5.416.127-10.084 1.433-14.246 2.602C-101.443-28.9-104.648-28-107.768-28c-1.282 0-3.595-.12-3.814-.126-3.595-.121-21.685-4.549-36.084-10.001a88.748 88.748 0 0 0-4.277 3.21c15.036 6.171 33.338 10.936 39.114 11.309 1.609.109 3.319.282 5.031.288 3.825 0 7.639-1.072 11.325-2.102 2.181-.614 4.585-1.283 7.115-1.767-.682.662-1.35 1.344-2.03 2.014l-10.439 11.296c-.821.825-2.608 3.042-1.429 5.771.47 1.104 1.408 2.149 2.748 3.049 2.482 1.669 6.939 2.801 11.078 2.801 1.567.006 3.055-.145 4.417-.452 4.378-.98 8.968-4.639 13.832-8.506 3.873-3.077 9.373-6.994 13.59-8.134 1.174-.319 2.626-.519 3.783-.519.356.006.674.014.982.054 2.783.362 5.47 1.303 10.283 4.911 8.566 6.438 46.48 39.603 46.848 39.939.026.021 2.447 2.108 2.277 5.567-.09 1.933-1.163 3.65-3.03 4.843a9.233 9.233 0 0 1-4.976 1.548 8.133 8.133 0 0 1-4.392-1.275c-.138-.109-13.126-12.024-17.917-16.026-.764-.638-1.5-1.198-2.241-1.198a1.243 1.243 0 0 0-.994.463c-.752.929.09 2.218 1.086 3.057l15.168 15.26c.017.018 1.892 1.764 2.095 4.108.121 2.529-1.085 4.645-3.603 6.294-1.794 1.174-3.603 1.782-5.379 1.782-2.33 0-3.963-1.061-4.331-1.325l-2.176-2.145c-3.987-3.909-8.094-7.958-11.097-10.471-.733-.605-1.511-1.167-2.262-1.167a1.307 1.307 0 0 0-.959.403c-.343.385-.585 1.072.278 2.2.349.468.766.854.766.854l11.068 12.444c.094.109 2.281 2.705.252 5.303l-.386.494c-.326.348-.667.679-1.029.994-1.892 1.548-4.411 1.715-5.411 1.715a8.335 8.335 0 0 1-1.501-.132c-1.088-.192-1.825-.5-2.187-.916l-.132-.138c-.609-.626-6.18-6.32-10.802-10.176-.614-.511-1.373-1.156-2.156-1.156a1.304 1.304 0 0 0-1 .447c-.91 1 .458 2.494 1.048 3.042l9.434 10.416a2.002 2.002 0 0 1-.349.639c-.337.469-1.482 1.614-4.91 2.049-.416.048-.837.072-1.253.072-3.536 0-7.301-1.718-9.247-2.742 3.308-7.042.276-15.438-6.766-18.746a14.089 14.089 0 0 0-6.487-1.333c.253-3.554-.253-10.271-7.14-13.229a14.707 14.707 0 0 0-5.891-1.301 11.892 11.892 0 0 0-4.319.782 11.853 11.853 0 0 0-6.898-5.856 15.35 15.35 0 0 0-5.054-.898c-2.873 0-5.518.849-7.868 2.524a11.955 11.955 0 0 0-9.264-4.478 11.967 11.967 0 0 0-8.416 3.477c-2.941-2.241-14.602-9.649-45.815-16.741a171.124 171.124 0 0 1-7.1-1.958 50.4 50.4 0 0 0-.801 5.127s5.753 1.374 6.891 1.627c31.886 7.078 42.422 14.452 44.205 15.838-2.53 6.108.368 13.104 6.47 15.634a12.025 12.025 0 0 0 6.742.711c.994 4.851 4.163 8.525 9.014 10.415 1.414.543 2.848.82 4.258.82a10.64 10.64 0 0 0 2.716-.343c.904 2.277 2.917 5.108 7.421 6.94 1.573.638 3.164.962 4.692.962 1.249 0 2.475-.216 3.645-.645a14.094 14.094 0 0 0 13.018 8.746c3.796 0 7.44-1.547 10.103-4.282 2.277 1.271 7.073 3.561 11.928 3.566.621 0 1.211-.048 1.801-.127 4.814-.603 7.061-2.489 8.093-3.951.18-.26.349-.53.494-.813 1.138.325 2.391.595 3.819.595 2.632 0 5.15-.897 7.711-2.747 2.505-1.819 4.295-4.409 4.548-6.615l.006-.1a12.94 12.94 0 0 0 2.578.264c2.711 0 5.374-.843 7.921-2.506 4.916-3.217 5.766-7.428 5.681-10.182.86.181 1.748.273 2.616.273 2.54 0 5.041-.768 7.414-2.284a10.844 10.844 0 0 0 5.162-8.386 11.399 11.399 0 0 0-1.638-6.784c8.228-3.542 27.037-10.41 49.181-15.398a47.161 47.161 0 0 0-.693-5.103C31.255 9.618 11.262 18.262 6.256 20.498zm-74.93 43.306a9.57 9.57 0 0 1-9.626-9.2c-.012-.44-.061-1.62-1.055-1.62-.407 0-.764.247-1.174.62-1.145 1.062-2.603 2.134-4.729 2.134a8.288 8.288 0 0 1-3.114-.669c-5.5-2.222-5.573-6.006-5.351-7.519.054-.402.08-.825-.205-1.155l-.337-.301h-.337c-.28 0-.571.113-.958.385-1.59 1.121-3.114 1.657-4.669 1.657a7.33 7.33 0 0 1-2.602-.494c-7.241-2.821-6.668-9.65-6.314-11.706.055-.415-.048-.741-.313-.957l-.515-.41-.474.446a7.451 7.451 0 0 1-5.194 2.114c-4.15-.173-7.379-3.675-7.203-7.825.154-3.909 3.294-7.047 7.21-7.205 3.741 0 6.939 2.819 7.416 6.562l.258 2.016 1.109-1.709c.121-.199 3.162-4.79 8.747-4.783 1.053 0 2.156.167 3.264.512 4.445 1.361 5.198 5.392 5.313 7.073.084.98.777 1.03.916 1.03.385 0 .663-.247.868-.46a7.56 7.56 0 0 1 5.531-2.33c1.306.005 2.699.313 4.145.934 7.065 3.023 3.867 12.011 3.831 12.114-.615 1.482-.64 2.145-.06 2.524l.276.126h.207a4.747 4.747 0 0 0 1.375-.354c.962-.337 2.416-.844 3.763-.844 5.314.055 9.608 4.345 9.658 9.656.001 5.32-4.343 9.638-9.657 9.638z"/><path fill="#FFF" d="M473.596-34.498c-4.444-5.571-11.188-8.354-20.242-8.354-9.047 0-15.795 2.777-20.229 8.354-4.458 5.554-6.669 12.139-6.669 19.723 0 7.724 2.211 14.325 6.669 19.82 4.438 5.481 11.182 8.222 20.229 8.222 9.055 0 15.803-2.742 20.242-8.222 4.445-5.495 6.664-12.097 6.664-19.82 0-7.585-2.223-14.17-6.664-19.723zM462.58-2.565c-2.157 2.861-5.24 4.298-9.277 4.298-4.019 0-7.115-1.437-9.301-4.298-2.17-2.861-3.254-6.927-3.254-12.211 0-5.265 1.089-9.331 3.254-12.175 2.186-2.843 5.276-4.266 9.301-4.266 4.037 0 7.12 1.423 9.277 4.266 2.156 2.85 3.234 6.91 3.234 12.175.006 5.283-1.078 9.35-3.234 12.211zM360.024-39.16c-4.499-2.277-9.656-3.441-15.471-3.441-8.923 0-15.218 2.327-18.88 6.978-2.31 2.976-3.604 6.777-3.912 11.396h13.332c.338-2.041.981-3.661 1.964-4.849 1.38-1.614 3.711-2.421 7.018-2.421 2.959 0 5.181.396 6.713 1.232 1.519.82 2.289 2.314 2.289 4.479 0 1.781-.994 3.082-2.976 3.933-1.12.488-2.952.886-5.532 1.207l-4.723.584c-5.374.675-9.445 1.813-12.211 3.397-5.043 2.91-7.565 7.601-7.565 14.097 0 5 1.554 8.873 4.698 11.603 3.132 2.734 7.114 3.875 11.922 4.102 30.152 1.345 29.807-15.885 30.086-19.47v-19.833c.013-6.367-2.24-10.699-6.752-12.994zM353.03-9.065c-.096 4.617-1.415 7.803-3.957 9.543a14.483 14.483 0 0 1-8.34 2.622c-1.914 0-3.522-.53-4.855-1.574-1.325-1.054-1.982-2.758-1.982-5.113 0-2.646 1.086-4.605 3.256-5.862 1.295-.741 3.409-1.379 6.349-1.887l3.15-.59c1.566-.295 2.796-.614 3.706-.946.9-.337 1.789-.77 2.674-1.325v5.132zm-61.736-21.722c3.445 0 5.976 1.067 7.607 3.194a11.753 11.753 0 0 1 2.097 5.312h14.872c-.825-7.5-3.449-12.729-7.879-15.705-4.438-2.951-10.138-4.439-17.096-4.439-8.186 0-14.626 2.507-19.271 7.536-4.656 5.024-6.982 12.055-6.982 21.085 0 8 2.103 14.523 6.319 19.535 4.212 5.025 10.789 7.536 19.717 7.536 8.94 0 15.693-3.006 20.234-9.03 2.856-3.729 4.465-7.691 4.792-11.886H300.89c-.301 2.771-1.162 5.025-2.601 6.767-1.429 1.735-3.844 2.614-7.248 2.614-4.801 0-8.066-2.188-9.802-6.578-.953-2.336-1.434-5.433-1.434-9.288 0-4.044.48-7.289 1.434-9.734 1.808-4.606 5.163-6.919 10.055-6.919zM260.656-42.42c-30.542 0-28.737 27.044-28.737 27.044v27.471h13.862v-25.768c0-4.229.536-7.347 1.59-9.386 1.896-3.603 5.613-5.41 11.163-5.41a41.92 41.92 0 0 1 3.971.247v-14.104l-1.182-.071a8.288 8.288 0 0 0-.667-.023zM209.74-2.27c-.586.832-1.206 1.544-1.897 2.098-1.956 1.608-4.62 2.103-7.753 2.103-2.952 0-5.271-.44-7.38-1.771-3.458-2.126-5.398-5.723-5.604-10.995h38.349c.056-4.549-.095-8.03-.464-10.451a25.818 25.818 0 0 0-4.187-10.885 21.592 21.592 0 0 0-9.108-7.801c-3.669-1.641-7.794-2.451-12.373-2.451-7.722 0-13.994 2.436-18.83 7.295-4.832 4.874-7.266 11.861-7.266 20.981 0 9.736 2.687 16.761 8.049 21.078 5.35 4.32 11.541 6.479 18.541 6.479 8.488 0 15.098-2.555 19.808-7.682 2.543-2.694 4.133-5.354 4.808-7.986H209.74v-.012zm-18.629-25.794c1.953-2.007 4.687-3.013 8.217-3.013 3.254 0 5.972.947 8.17 2.843 2.186 1.888 3.415 4.671 3.662 8.313h-23.711c.494-3.427 1.718-6.143 3.662-8.143zm-23.434 40.15h-12.663v-31.879c0-2.915-.961-9.836-9.318-9.836-5.56 0-9.591 4.004-9.591 9.836v31.882h-12.669v-31.882c0-2.915-.874-9.836-9.211-9.836-5.663 0-9.603 4.004-9.603 9.836v31.882H91.948v-31.58c0-13.163 8.735-23.116 22.271-23.116 6.719 0 12.183 2.822 15.741 7.347a20.165 20.165 0 0 1 15.735-7.347c13.818 0 21.979 9.549 21.979 23.116v31.577h.003zm254.655-71.157s-13.972-1.488-13.972 9.724l-.011 14.849a16.581 16.581 0 0 0-6.037-5.818c-2.469-1.402-5.307-2.104-8.506-2.104-6.921 0-12.446 2.578-16.587 7.729-4.145 5.15-6.203 12.578-6.203 21.56 0 7.794 2.096 14.188 6.301 19.158 4.203 4.97 12.444 7.149 19.752 7.149 25.524 0 25.229-21.885 25.229-21.885l.034-50.362zM405.706-2.455c-2.024 2.909-5.001 4.35-8.888 4.35-3.903 0-6.808-1.465-8.711-4.373-1.921-2.915-2.88-7.163-2.88-12.023 0-4.507.933-8.283 2.825-11.326 1.885-3.042 4.831-4.561 8.861-4.561 2.644 0 4.964.839 6.964 2.509 3.252 2.771 4.88 7.735 4.88 14.173-.002 4.599-1.027 8.353-3.051 11.251zM359.024 78.22a9.828 9.828 0 0 1-1.88 2.073c-1.935 1.589-4.675 2.181-7.761 2.181-2.927 0-5.217-.428-7.289-1.747-3.434-2.097-5.244-5.759-5.464-10.983h37.929c.042-4.487-.101-7.935-.458-10.319a25.921 25.921 0 0 0-4.145-10.771 21.31 21.31 0 0 0-9.007-7.699c-3.632-1.626-7.706-2.44-12.236-2.44-7.638 0-13.825 2.409-18.619 7.217-4.778 4.813-7.171 11.717-7.171 20.737 0 9.632 2.646 16.584 7.94 20.843 5.291 4.271 11.417 6.404 18.344 6.404 8.388 0 14.916-2.523 19.579-7.584 2.513-2.676 4.09-5.309 4.76-7.905h-14.525v-.007h.003zm-18.418-25.512c1.929-1.977 4.639-2.97 8.116-2.97 3.216 0 5.904.933 8.078 2.808 2.17 1.873 3.385 4.607 3.632 8.222h-23.451c.495-3.392 1.693-6.072 3.625-8.06zm-20.389-14.236a11.413 11.413 0 0 0-.646-.019c-30.471 0-28.662 26.965-28.662 26.965v26.977h13.818V67.124c0-4.217.528-7.337 1.603-9.361 1.891-3.585 5.591-5.398 11.126-5.398a46.2 46.2 0 0 1 3.952.241V38.545c-.619-.031-1.019-.048-1.191-.073zm-122.588-7.044v60.967h12.974V21.507c-.001.001-12.974-.522-12.974 9.921zm23.616-9.992h13.88V35.19h-13.88V21.436zm0 18.447h13.917v52.513h-13.917V39.883zm51.012 52.698h-14.06l-18.434-52.698h14.674l10.494 37.046 9.313-32.287c1.061-3.177 3.169-4.754 6.337-4.754h10.302l-18.626 52.693z"/></svg>